<?xml version="1.0" encoding="UTF-8"?>
<svg width="358px" height="224px" viewBox="0 0 358 224" version="1.1" xmlns="http://www.w3.org/2000/svg" xmlns:xlink="http://www.w3.org/1999/xlink">
    <title>Page 1</title>
    <g id="Page-1" stroke="none" stroke-width="1" fill="none" fill-rule="evenodd">
        <g id="Artboard" transform="translate(-73.000000, -49.000000)">
            <rect id="Rectangle" fill="#4A53A3" x="0" y="0" width="675" height="639"></rect>
            <path d="M181.604,128 L186.728,114.308 L211.802,114.308 L216.926,128 L229.442,128 L206.552,69.2 L192.272,69.2 L169.382,128 L181.604,128 Z M207.77,103.514 L190.76,103.514 L199.286,80.792 L207.77,103.514 Z M248.72,128 L248.762,88.73 L278.582,128 L289.586,128 L289.586,69.2 L277.826,69.2 L277.826,108.47 L247.964,69.2 L237.002,69.2 L237.002,128 L248.72,128 Z M346.874,128 L346.874,117.248 L314.66,117.248 L314.66,103.724 L345.068,103.724 L345.068,92.972 L314.66,92.972 L314.66,79.952 L346.538,79.952 L346.538,69.2 L302.942,69.2 L302.942,128 L346.874,128 Z M370.604,128 L370.604,83.942 L385.136,122.33 L397.526,122.33 L412.058,83.606 L412.058,128 L423.776,128 L423.776,69.2 L406.598,69.2 L391.352,108.89 L376.064,69.2 L358.886,69.2 L358.886,128 L370.604,128 Z M186.896,195 L186.896,173.496 L199.244,173.496 C206.104,173.496 211.389,171.83 215.099,168.498 C218.809,165.166 220.664,160.63 220.664,154.89 C220.664,149.094 218.809,144.53 215.099,141.198 C211.389,137.866 206.076,136.2 199.16,136.2 L199.16,136.2 L175.178,136.2 L175.178,195 L186.896,195 Z M198.95,162.786 L186.896,162.786 L186.896,146.994 L198.95,146.994 C205.418,146.994 208.652,149.626 208.652,154.89 C208.652,160.154 205.418,162.786 198.95,162.786 L198.95,162.786 Z M274.592,195 L274.592,184.248 L242.378,184.248 L242.378,170.724 L272.786,170.724 L272.786,159.972 L242.378,159.972 L242.378,146.952 L274.256,146.952 L274.256,136.2 L230.66,136.2 L230.66,195 L274.592,195 Z M298.322,195 L298.322,171.606 L301.766,171.606 L318.902,195 L333.098,195 L314.996,171.438 C320.624,170.906 325.034,169.093 328.226,165.999 C331.418,162.905 333.014,158.936 333.014,154.092 C333.014,148.408 331.159,144.005 327.449,140.883 C323.739,137.761 318.412,136.2 311.468,136.2 L311.468,136.2 L286.604,136.2 L286.604,195 L298.322,195 Z M311.258,161.4 L298.322,161.4 L298.322,146.994 L311.258,146.994 C317.726,146.994 320.96,149.36 320.96,154.092 C320.96,158.964 317.726,161.4 311.258,161.4 L311.258,161.4 Z M186.896,262 L186.896,238.186 L216.38,238.186 L216.38,227.392 L186.896,227.392 L186.896,213.994 L218.354,213.994 L218.354,203.2 L175.178,203.2 L175.178,262 L186.896,262 Z M272.954,262 L272.954,251.248 L240.74,251.248 L240.74,237.724 L271.148,237.724 L271.148,226.972 L240.74,226.972 L240.74,213.952 L272.618,213.952 L272.618,203.2 L229.022,203.2 L229.022,262 L272.954,262 Z M296.684,262 L296.684,203.2 L284.966,203.2 L284.966,262 L296.684,262 Z M321.758,262 L321.8,222.73 L351.62,262 L362.624,262 L362.624,203.2 L350.864,203.2 L350.864,242.47 L321.002,203.2 L310.04,203.2 L310.04,262 L321.758,262 Z M382.406,262 L387.53,248.308 L412.604,248.308 L417.728,262 L430.244,262 L407.354,203.2 L393.074,203.2 L370.184,262 L382.406,262 Z M408.572,237.514 L391.562,237.514 L400.088,214.792 L408.572,237.514 Z" id="ANEMPERFEINA" fill="#FFFFFF" fill-rule="nonzero"></path>
            <line x1="130.5" y1="56.5" x2="80.5" y2="265.5" id="Line" stroke="#FFFFFF" stroke-width="14" stroke-linecap="round"></line>
        </g>
    </g>
</svg>